<svg xmlns="http://www.w3.org/2000/svg" xmlns:xlink="http://www.w3.org/1999/xlink" width="500" zoomAndPan="magnify" viewBox="0 0 375 374.999991" height="500" preserveAspectRatio="xMidYMid meet" version="1.0"><path fill="#1b1b1b" d="M 148.988281 330.699219 C 122.425781 301.046875 113.089844 223.324219 113.808594 172.625 C 104.714844 196.78125 103.203125 205.40625 97.535156 215.433594 L 71.210938 203.238281 C 71.210938 199.171875 84.132812 133.886719 99.3125 112.082031 C 100.21875 110.777344 102.054688 110.316406 102.824219 108.925781 C 104.195312 106.449219 102.964844 103.421875 102.175781 100.703125 C 101.382812 97.980469 101.511719 94.289062 104.136719 93.226562 L 103.253906 91.886719 C 99.171875 84.8125 97.464844 76.542969 97.398438 68.378906 C 97.207031 43.894531 112.59375 19.976562 134.964844 9.992188 C 157.339844 0.0078125 185.433594 4.519531 203.550781 21.003906 C 221.664062 37.488281 228.78125 65.019531 220.925781 88.207031 L 223.304688 88.453125 C 226.042969 89.976562 228.121094 92.644531 228.933594 95.667969 C 238.847656 90.546875 256.855469 74.945312 264.816406 67.164062 L 288.269531 81.273438 C 272.472656 124.796875 233.585938 151.710938 233.585938 151.710938 C 230.652344 157.757812 229.617188 165.066406 232.378906 171.195312 L 243.996094 206.34375 C 259.550781 261.585938 254.039062 261.878906 272.664062 295.164062 C 273.832031 297.246094 275.050781 299.371094 275.4375 301.726562 C 275.777344 303.800781 275.449219 305.921875 275.03125 307.980469 C 271.828125 323.855469 264.082031 333.363281 252.003906 344.160156 C 250.050781 345.90625 247.605469 347.65625 245.039062 347.117188 C 242.859375 346.65625 241.355469 344.664062 240.367188 342.667969 C 236.160156 334.191406 237 329.273438 234.453125 320.160156 C 230.53125 306.105469 217.539062 296.421875 211.535156 283.121094 C 209.070312 277.667969 190.839844 251.761719 187.757812 236.714844 C 180.5 265.828125 185.019531 280.199219 191.933594 309.394531 C 193.003906 313.914062 195.832031 324.753906 197.277344 327.1875 C 205.464844 340.980469 196.800781 351.394531 187.5 360.738281 C 184.539062 363.714844 181.257812 366.363281 177.839844 368.808594 C 176.710938 369.613281 175.566406 370.402344 174.40625 371.164062 C 168.59375 374.996094 160.933594 370.332031 161.660156 363.410156 C 161.945312 360.675781 162.261719 357.925781 162.203125 355.238281 C 162.03125 346.808594 157.867188 338.550781 151.191406 333.394531 Z M 148.988281 330.699219 " fill-opacity="1" fill-rule="nonzero"/><path fill="#f2f6ff" d="M 111.417969 87.730469 C 99.691406 65.730469 109.828125 38.109375 128.285156 25.261719 C 146.746094 12.414062 173.230469 11.746094 191.667969 24.625 C 210.105469 37.5 218.515625 63.480469 210.066406 84.3125 Z M 111.417969 87.730469 " fill-opacity="1" fill-rule="nonzero"/><path fill="#1b1b1b" d="M 102.082031 48.75 C 99.652344 48.328125 95.589844 48.585938 93.125 48.699219 C 92.492188 48.726562 91.820312 48.785156 91.296875 49.144531 C 90.675781 49.570312 90.390625 50.328125 90.136719 51.035156 C 88.960938 54.339844 87.480469 70.941406 88.28125 75.78125 C 88.460938 76.851562 88.679688 78 89.46875 78.742188 C 90.289062 79.515625 91.515625 79.644531 92.644531 79.640625 C 95.074219 79.632812 97.5 79.191406 99.777344 78.347656 Z M 102.082031 48.75 " fill-opacity="1" fill-rule="nonzero"/><path fill="#1b1b1b" d="M 219.914062 48.75 C 222.34375 48.328125 226.410156 48.585938 228.871094 48.699219 C 229.507812 48.726562 230.175781 48.785156 230.699219 49.144531 C 231.320312 49.570312 231.609375 50.328125 231.863281 51.035156 C 233.039062 54.339844 234.519531 70.941406 233.714844 75.78125 C 233.539062 76.851562 233.320312 78 232.53125 78.742188 C 231.710938 79.515625 230.480469 79.644531 229.351562 79.640625 C 226.925781 79.632812 224.496094 79.191406 222.222656 78.347656 Z M 219.914062 48.75 " fill-opacity="1" fill-rule="nonzero"/><path fill="#1b1b1b" d="M 251.652344 77.449219 C 256.191406 72.621094 262.253906 68.53125 266.296875 63.28125 C 273.433594 54.011719 271.398438 37.710938 271.515625 32.25 C 271.59375 28.664062 272.175781 24.667969 273.863281 22.457031 C 275.199219 20.710938 277.9375 21.144531 278.667969 23.214844 C 280.285156 27.824219 280.09375 34.226562 281.570312 38.46875 C 284.964844 31.105469 288.722656 21.820312 294.359375 15.992188 C 295.136719 15.1875 296.542969 14.882812 297.296875 15.707031 C 299.515625 18.140625 292.355469 33.410156 289.707031 39.664062 C 293.121094 35.226562 296.339844 28.964844 299.753906 24.523438 C 301.648438 22.066406 303.765625 19.449219 306.835938 18.792969 C 307.011719 18.753906 307.191406 18.738281 307.371094 18.761719 C 308.433594 18.910156 308.523438 20.011719 308.414062 20.878906 C 308.058594 23.699219 306.800781 26.316406 305.558594 28.871094 C 303.507812 33.101562 300.613281 39.019531 298.558594 43.25 C 303.101562 38.523438 308.867188 31.902344 314.839844 29.546875 C 317.019531 28.683594 318.371094 30.722656 317.707031 32.96875 C 316.984375 35.394531 307.191406 47.101562 303.585938 51.382812 C 306.171875 49.648438 309.394531 48.601562 312.421875 47.859375 C 314.480469 47.355469 317.417969 47.632812 317.578125 49.890625 C 317.628906 50.601562 317.199219 51.578125 316.667969 52.054688 C 303.859375 63.523438 294.074219 72.773438 288.058594 86.285156 C 286.746094 89.234375 286.15625 93.78125 284.679688 96.578125 L 251.65625 77.449219 Z M 251.652344 77.449219 " fill-opacity="1" fill-rule="nonzero"/><path fill="#1b1b1b" d="M 100.167969 213.757812 C 97.953125 219 94.320312 223.796875 93.707031 225 C 91.492188 229.351562 92.785156 245.496094 87.964844 246.28125 C 86.6875 246.488281 83.519531 236.527344 82.441406 237.238281 C 81.511719 237.84375 80.960938 238.871094 80.445312 239.851562 C 77.550781 245.371094 63.3125 267.089844 60.800781 260.390625 C 56.820312 253.265625 58.46875 244.351562 61.265625 236.6875 C 64.058594 229.019531 67.949219 221.5 68.210938 213.34375 C 68.371094 208.316406 69.535156 198.695312 69.699219 198.515625 Z M 100.167969 213.757812 " fill-opacity="1" fill-rule="nonzero"/><path fill="#f2f6ff" d="M 110.417969 107.726562 C 123.988281 109.964844 137.785156 110.808594 151.535156 110.558594 C 165.132812 110.308594 178.777344 109.316406 192.195312 107.0625 C 195.976562 106.425781 199.738281 105.707031 203.472656 104.851562 C 205.4375 104.402344 207.398438 103.929688 209.351562 103.433594 C 211.171875 102.96875 212.859375 102.523438 214.300781 101.269531 C 214.859375 100.78125 214.59375 99.671875 213.84375 99.539062 C 210.714844 98.984375 207.363281 100.441406 204.339844 101.175781 C 201.011719 101.980469 197.671875 102.734375 194.324219 103.449219 C 187.71875 104.851562 181.058594 105.753906 174.414062 106.902344 C 161.003906 109.226562 146.96875 109.25 133.40625 108.667969 C 125.773438 108.339844 118.132812 107.664062 110.546875 106.785156 C 110.011719 106.722656 109.882812 107.636719 110.417969 107.726562 Z M 110.417969 107.726562 " fill-opacity="1" fill-rule="nonzero"/><path fill="#f2f6ff" d="M 109.511719 94.785156 C 123.113281 97.261719 137.265625 97.6875 151.0625 97.757812 C 165.023438 97.824219 178.921875 96.933594 192.722656 94.800781 C 196.542969 94.210938 200.347656 93.539062 204.136719 92.78125 C 208.082031 91.988281 212.214844 91.324219 216.007812 89.960938 C 217.414062 89.460938 216.839844 87.550781 215.402344 87.765625 C 211.992188 88.273438 208.632812 89.265625 205.257812 89.976562 C 201.875 90.6875 198.476562 91.328125 195.070312 91.90625 C 188.152344 93.070312 181.203125 93.894531 174.226562 94.609375 C 160.546875 96.015625 146.785156 96.398438 133.046875 95.746094 C 125.21875 95.375 117.433594 94.523438 109.617188 93.992188 C 109.167969 93.960938 109.058594 94.703125 109.511719 94.785156 Z M 109.511719 94.785156 " fill-opacity="1" fill-rule="nonzero"/><path fill="#f2f6ff" d="M 114.460938 166.226562 C 115.546875 162.871094 115.167969 159.554688 114.421875 156.171875 C 113.597656 152.4375 112.628906 148.792969 112.335938 144.957031 C 112.0625 141.339844 112.285156 137.664062 112.996094 134.105469 C 113.351562 132.335938 113.796875 130.570312 114.292969 128.832031 C 114.65625 127.570312 115.441406 125.71875 114.636719 124.503906 C 114.546875 124.375 114.386719 124.292969 114.230469 124.339844 C 113.03125 124.691406 112.453125 126.246094 112.125 127.34375 C 111.628906 129 111.292969 130.695312 111.058594 132.410156 C 110.558594 136.105469 110.460938 139.808594 110.671875 143.527344 C 110.871094 147.074219 111.523438 150.523438 112.394531 153.960938 C 113.378906 157.859375 114.445312 161.953125 113.535156 165.96875 C 113.398438 166.574219 114.269531 166.8125 114.460938 166.226562 Z M 114.460938 166.226562 " fill-opacity="1" fill-rule="nonzero"/><path fill="#f2f6ff" d="M 88.671875 154.378906 C 91.316406 157.585938 95.535156 159.789062 99.21875 161.554688 C 101.078125 162.445312 102.980469 163.207031 104.9375 163.84375 C 106.640625 164.398438 108.894531 165.261719 110.6875 164.691406 C 110.832031 164.644531 110.898438 164.449219 110.777344 164.339844 C 109.523438 163.175781 107.507812 162.828125 105.921875 162.300781 C 103.867188 161.621094 101.835938 160.820312 99.867188 159.917969 C 96.085938 158.191406 92.804688 155.652344 89.109375 153.8125 C 88.734375 153.625 88.414062 154.0625 88.675781 154.378906 Z M 88.671875 154.378906 " fill-opacity="1" fill-rule="nonzero"/><path fill="#f2f6ff" d="M 96.027344 168.03125 C 99.277344 169.726562 104.441406 170.664062 107.882812 169.027344 C 108.035156 168.953125 108.007812 168.671875 107.832031 168.644531 C 106.074219 168.375 104.269531 168.558594 102.5 168.449219 C 100.394531 168.324219 98.335938 167.835938 96.269531 167.453125 C 95.941406 167.394531 95.691406 167.855469 96.027344 168.03125 Z M 96.027344 168.03125 " fill-opacity="1" fill-rule="nonzero"/><path fill="#f2f6ff" d="M 216.699219 109.589844 C 217.996094 110.460938 216.792969 113.796875 216.664062 114.992188 C 216.4375 117.101562 216.347656 119.25 216.378906 121.371094 C 216.429688 124.945312 216.984375 128.507812 218.28125 131.847656 C 220.445312 137.421875 224.824219 143.863281 230.890625 145.464844 C 231.414062 145.601562 231.746094 144.96875 231.402344 144.585938 C 229.121094 142.046875 226.421875 139.863281 224.351562 137.125 C 222.324219 134.445312 220.785156 131.371094 219.84375 128.152344 C 218.710938 124.265625 218.625 120.222656 218.800781 116.207031 C 218.890625 114.097656 219.773438 109.601562 217.105469 108.632812 C 216.515625 108.417969 216.230469 109.273438 216.699219 109.589844 Z M 216.699219 109.589844 " fill-opacity="1" fill-rule="nonzero"/><path fill="#f2f6ff" d="M 227.042969 119.675781 C 228.292969 123.394531 230.101562 126.972656 232.554688 130.046875 C 234.785156 132.84375 237.929688 136.492188 241.597656 137.289062 C 241.785156 137.328125 241.882812 137.125 241.773438 136.988281 C 240.679688 135.574219 239.140625 134.449219 237.792969 133.285156 C 236.402344 132.085938 235.109375 130.785156 233.921875 129.386719 C 231.386719 126.394531 229.316406 123.09375 227.851562 119.449219 C 227.65625 118.960938 226.867188 119.152344 227.042969 119.675781 Z M 227.042969 119.675781 " fill-opacity="1" fill-rule="nonzero"/><path fill="#f2f6ff" d="M 146.832031 229.050781 C 153.148438 227.9375 159.546875 228.34375 165.769531 229.8125 C 168.707031 230.507812 171.605469 231.398438 174.46875 232.351562 C 176.003906 232.863281 177.511719 233.433594 179.0625 233.886719 C 180.402344 234.277344 181.839844 234.917969 183.25 234.761719 C 183.496094 234.734375 183.628906 234.46875 183.453125 234.273438 C 182.457031 233.171875 180.828125 232.679688 179.496094 232.09375 C 178.125 231.492188 176.703125 231.019531 175.285156 230.542969 C 172.039062 229.449219 168.746094 228.507812 165.386719 227.832031 C 159.140625 226.574219 152.722656 226.203125 146.558594 228.066406 C 145.921875 228.261719 146.191406 229.164062 146.832031 229.050781 Z M 146.832031 229.050781 " fill-opacity="1" fill-rule="nonzero"/><path fill="#f2f6ff" d="M 157.414062 242.597656 C 160.285156 241.535156 163.371094 241.035156 166.417969 240.769531 C 169.199219 240.53125 172 240.78125 174.761719 240.347656 C 174.976562 240.316406 175.011719 239.972656 174.824219 239.882812 C 169.355469 237.230469 162.375 239.351562 157.105469 241.46875 C 156.417969 241.746094 156.699219 242.863281 157.414062 242.597656 Z M 157.414062 242.597656 " fill-opacity="1" fill-rule="nonzero"/><path fill="#f2f6ff" d="M 191.539062 233.269531 C 194.980469 228.421875 199.234375 224.164062 204.292969 220.996094 C 206.75 219.453125 209.375 218.171875 212.117188 217.214844 C 214.765625 216.292969 217.59375 215.878906 220.175781 214.777344 C 220.890625 214.472656 220.402344 213.566406 219.828125 213.492188 C 216.878906 213.109375 213.78125 214.1875 211.070312 215.238281 C 208.1875 216.359375 205.425781 217.785156 202.863281 219.515625 C 197.84375 222.90625 193.578125 227.425781 190.839844 232.859375 C 190.605469 233.332031 191.238281 233.691406 191.539062 233.269531 Z M 191.539062 233.269531 " fill-opacity="1" fill-rule="nonzero"/><path fill="#f2f6ff" d="M 204.230469 230.851562 C 206.355469 229.371094 208.578125 228.085938 210.972656 227.097656 C 212.160156 226.609375 213.367188 226.242188 214.59375 225.878906 C 215.535156 225.601562 216.695312 225.460938 217.386719 224.738281 C 217.503906 224.617188 217.480469 224.421875 217.335938 224.335938 C 215.519531 223.25 212.050781 224.8125 210.328125 225.5625 C 207.835938 226.640625 205.585938 228.222656 203.722656 230.191406 C 203.40625 230.523438 203.824219 231.136719 204.230469 230.851562 Z M 204.230469 230.851562 " fill-opacity="1" fill-rule="nonzero"/><path fill="#f2f6ff" d="M 127.429688 276.5625 C 128.390625 276.992188 128.984375 277.492188 130.042969 277.753906 C 130.9375 277.976562 131.835938 278.179688 132.746094 278.339844 C 134.671875 278.671875 136.617188 278.941406 138.5625 279.078125 C 142.734375 279.375 146.914062 279.277344 151.058594 278.769531 C 155.039062 278.277344 159.019531 277.542969 162.835938 276.296875 C 166.460938 275.113281 170.5 273.746094 173.402344 271.1875 C 173.757812 270.875 173.371094 270.390625 172.980469 270.460938 C 169.203125 271.160156 165.582031 272.832031 161.863281 273.820312 C 158.121094 274.816406 154.359375 275.675781 150.507812 276.128906 C 146.734375 276.570312 142.917969 276.761719 139.121094 276.644531 C 137.269531 276.585938 135.421875 276.5 133.578125 276.328125 C 132.570312 276.234375 131.558594 276.140625 130.554688 276.035156 C 129.464844 275.921875 128.628906 276.117188 127.550781 276.113281 C 127.328125 276.113281 127.203125 276.460938 127.429688 276.5625 Z M 127.429688 276.5625 " fill-opacity="1" fill-rule="nonzero"/><path fill="#f2f6ff" d="M 144.230469 287.777344 C 147.328125 288.019531 150.511719 287.582031 153.527344 286.851562 C 155.882812 286.28125 159.546875 285.488281 161.074219 283.449219 C 161.191406 283.289062 161.027344 283.097656 160.867188 283.085938 C 159.554688 282.992188 158.152344 283.632812 156.925781 284.046875 C 155.558594 284.511719 154.195312 284.933594 152.804688 285.316406 C 149.949219 286.101562 147.039062 286.53125 144.132812 287.070312 C 143.710938 287.148438 143.847656 287.746094 144.230469 287.777344 Z M 144.230469 287.777344 " fill-opacity="1" fill-rule="nonzero"/><path fill="#f2f6ff" d="M 210.714844 273.648438 C 216.15625 272.992188 221.40625 271.835938 226.574219 269.996094 C 229.074219 269.105469 231.539062 268.121094 233.96875 267.0625 C 236.460938 265.972656 239.015625 264.929688 241.09375 263.136719 C 241.796875 262.53125 241.042969 261.414062 240.21875 261.632812 C 237.664062 262.316406 235.355469 263.671875 232.960938 264.757812 C 230.558594 265.839844 228.121094 266.832031 225.644531 267.734375 C 220.6875 269.546875 215.652344 271.238281 210.589844 272.734375 C 210.109375 272.878906 210.175781 273.714844 210.714844 273.648438 Z M 210.714844 273.648438 " fill-opacity="1" fill-rule="nonzero"/><path fill="#f2f6ff" d="M 224.722656 277.363281 C 226.972656 276.753906 229.128906 275.875 231.382812 275.277344 C 233.40625 274.746094 235.730469 274.554688 237.628906 273.675781 C 237.800781 273.59375 237.757812 273.300781 237.574219 273.265625 C 235.515625 272.84375 233.03125 273.507812 231.042969 274.054688 C 228.75 274.683594 226.460938 275.425781 224.457031 276.734375 C 224.136719 276.941406 224.332031 277.46875 224.722656 277.363281 Z M 224.722656 277.363281 " fill-opacity="1" fill-rule="nonzero"/><path fill="#55acee" d="M 191.605469 177.449219 C 198.441406 182.980469 206.332031 187.089844 214.9375 189.070312 C 224.011719 191.160156 234.113281 191.257812 242.027344 185.707031 C 244.148438 184.21875 245.136719 181.507812 243.75 179.140625 C 242.523438 177.042969 239.316406 175.921875 237.179688 177.417969 C 234.136719 179.554688 231.171875 180.582031 227.683594 180.785156 C 223.789062 181.015625 220.640625 180.578125 216.96875 179.691406 C 210.171875 178.050781 203.617188 174.886719 198.394531 170.660156 C 196.382812 169.03125 193.574219 168.695312 191.605469 170.660156 C 189.917969 172.347656 189.578125 175.808594 191.605469 177.449219 Z M 191.605469 177.449219 " fill-opacity="1" fill-rule="nonzero"/><path fill="#f2f6ff" d="M 186.484375 189.46875 C 192.269531 196.328125 199.558594 202.042969 207.589844 206.054688 C 215.742188 210.128906 225.101562 213.066406 234.285156 213.140625 C 239.699219 213.183594 245.121094 211.785156 249.082031 207.929688 C 250.941406 206.121094 250.898438 202.960938 249.082031 201.144531 C 247.222656 199.285156 244.15625 199.332031 242.292969 201.144531 C 242.074219 201.367188 241.847656 201.578125 241.613281 201.777344 C 241.984375 201.507812 241.941406 201.53125 241.484375 201.851562 C 240.960938 202.167969 240.449219 202.484375 239.890625 202.734375 C 240.714844 202.363281 239.054688 202.980469 238.878906 203.03125 C 238.277344 203.199219 237.667969 203.324219 237.054688 203.429688 C 237.890625 203.285156 236.632812 203.464844 236.445312 203.476562 C 235.804688 203.527344 235.167969 203.546875 234.527344 203.546875 C 233.246094 203.546875 231.980469 203.441406 230.707031 203.320312 C 230.148438 203.25 230.085938 203.242188 230.511719 203.300781 C 230.261719 203.265625 230.011719 203.230469 229.761719 203.191406 C 229.179688 203.101562 228.597656 203.003906 228.015625 202.898438 C 226.691406 202.652344 225.371094 202.363281 224.0625 202.035156 C 221.613281 201.414062 219.199219 200.644531 216.839844 199.734375 C 216.667969 199.667969 215.078125 199.019531 215.644531 199.261719 C 215.023438 198.996094 214.410156 198.714844 213.800781 198.429688 C 212.730469 197.925781 211.679688 197.394531 210.640625 196.835938 C 208.414062 195.632812 206.257812 194.300781 204.191406 192.84375 C 200.507812 190.25 196.566406 186.585938 193.277344 182.679688 C 191.601562 180.699219 188.207031 180.960938 186.484375 182.679688 C 184.519531 184.644531 184.808594 187.480469 186.484375 189.46875 Z M 186.484375 189.46875 " fill-opacity="1" fill-rule="nonzero"/><path fill="#55acee" d="M 139.570312 177.328125 C 139.011719 178.726562 139.769531 176.921875 139.410156 177.714844 C 139.246094 178.074219 139.078125 178.4375 138.898438 178.792969 C 138.542969 179.511719 138.164062 180.222656 137.761719 180.917969 C 136.90625 182.402344 135.953125 183.839844 134.914062 185.207031 C 134.65625 185.546875 135.058594 185.050781 134.589844 185.605469 C 134.320312 185.925781 134.058594 186.25 133.789062 186.570312 C 133.238281 187.207031 132.675781 187.832031 132.097656 188.445312 C 130.875 189.742188 129.585938 190.980469 128.242188 192.160156 C 125.742188 194.359375 123.632812 195.898438 120.582031 197.789062 C 119.089844 198.714844 117.5625 199.582031 116.003906 200.382812 C 115.273438 200.757812 114.542969 201.121094 113.800781 201.464844 C 113.433594 201.636719 113.066406 201.800781 112.699219 201.96875 C 111.800781 202.382812 113.078125 201.824219 112.089844 202.234375 C 109.691406 203.21875 107.988281 205.417969 108.734375 208.136719 C 109.359375 210.402344 112.226562 212.476562 114.640625 211.488281 C 129.230469 205.492188 142.835938 194.835938 148.832031 179.882812 C 149.769531 177.546875 147.8125 174.511719 145.476562 173.980469 C 142.703125 173.347656 140.574219 174.828125 139.570312 177.332031 Z M 139.570312 177.328125 " fill-opacity="1" fill-rule="nonzero"/><path fill="#f2f6ff" d="M 147.777344 187.691406 C 147.695312 188.808594 147.59375 189.921875 147.445312 191.03125 C 147.550781 190.242188 147.339844 191.667969 147.304688 191.886719 C 147.214844 192.4375 147.117188 192.984375 147.007812 193.535156 C 146.570312 195.808594 146 198.058594 145.3125 200.269531 C 144.980469 201.339844 144.621094 202.402344 144.234375 203.457031 C 144.066406 203.90625 143.894531 204.359375 143.71875 204.804688 C 143.601562 205.105469 143.480469 205.402344 143.363281 205.699219 C 143.058594 206.449219 143.605469 205.144531 143.285156 205.886719 C 142.355469 208.035156 141.320312 210.132812 140.183594 212.175781 C 139.082031 214.160156 137.886719 216.09375 136.613281 217.96875 C 135.972656 218.910156 135.3125 219.835938 134.628906 220.75 C 134.484375 220.945312 134.335938 221.140625 134.1875 221.332031 C 133.695312 221.980469 134.550781 220.882812 134.042969 221.519531 C 133.6875 221.964844 133.328125 222.410156 132.964844 222.847656 C 130.007812 226.421875 126.738281 229.738281 123.203125 232.746094 C 122.710938 233.167969 122.210938 233.582031 121.707031 233.992188 C 121.453125 234.195312 121.199219 234.398438 120.945312 234.601562 C 120.308594 235.105469 121.410156 234.25 120.765625 234.742188 C 119.734375 235.527344 118.683594 236.285156 117.617188 237.015625 C 115.429688 238.515625 113.160156 239.890625 110.832031 241.160156 C 108.554688 242.398438 107.828125 245.535156 109.109375 247.722656 C 110.453125 250.023438 113.390625 250.6875 115.675781 249.445312 C 133.355469 239.832031 147.578125 223.519531 154.054688 204.421875 C 155.886719 199.015625 156.957031 193.382812 157.378906 187.691406 C 157.566406 185.183594 155.039062 182.785156 152.578125 182.894531 C 149.816406 183.015625 147.976562 185.003906 147.777344 187.691406 Z M 147.777344 187.691406 " fill-opacity="1" fill-rule="nonzero"/><path fill="#1b1b1b" d="M 158.511719 185.835938 C 155.882812 183.195312 151.570312 182.402344 148.175781 183.9375 L 148.171875 186.691406 C 151.273438 185.625 154.867188 186.105469 157.578125 187.949219 Z M 158.511719 185.835938 " fill-opacity="1" fill-rule="nonzero"/><path fill="#1b1b1b" d="M 192.121094 180.585938 C 188.441406 181.15625 185.265625 184.175781 184.507812 187.824219 L 186.734375 189.445312 C 187.695312 186.3125 190.195312 183.6875 193.285156 182.578125 Z M 192.121094 180.585938 " fill-opacity="1" fill-rule="nonzero"/><path fill="#1b1b1b" d="M 141.714844 173.636719 C 144.917969 173.921875 147.90625 175.75 149.300781 178.644531 L 147.882812 180.761719 C 146.03125 178.3125 143.152344 176.667969 140.101562 176.320312 Z M 141.714844 173.636719 " fill-opacity="1" fill-rule="nonzero"/><path fill="#1b1b1b" d="M 189.652344 175.308594 C 190.597656 172.238281 193.007812 169.699219 196.132812 168.9375 L 197.910156 170.765625 C 195.128906 172.066406 192.917969 174.539062 191.941406 177.445312 Z M 189.652344 175.308594 " fill-opacity="1" fill-rule="nonzero"/><path fill="#f2f6ff" d="M 158.101562 205.597656 C 163.804688 205.363281 169.460938 204.804688 175.113281 204.003906 C 180.839844 203.1875 186.816406 202.402344 192.375 200.761719 C 192.941406 200.59375 192.695312 199.804688 192.136719 199.894531 C 186.550781 200.78125 181.054688 202.113281 175.445312 202.910156 C 169.691406 203.726562 163.890625 204.296875 158.101562 204.757812 C 157.566406 204.800781 157.554688 205.621094 158.101562 205.597656 Z M 158.101562 205.597656 " fill-opacity="1" fill-rule="nonzero"/><path fill="#f2f6ff" d="M 154.40625 209.363281 C 162.121094 210.003906 170.214844 208.933594 177.839844 207.78125 C 181.742188 207.191406 185.617188 206.457031 189.464844 205.574219 C 191.433594 205.121094 193.402344 204.640625 195.363281 204.15625 C 196.96875 203.757812 199 203.679688 200.28125 202.585938 C 200.734375 202.199219 200.320312 201.589844 199.847656 201.535156 C 198.835938 201.414062 198.261719 201.789062 197.324219 202.128906 C 196.472656 202.4375 195.578125 202.664062 194.707031 202.921875 C 192.863281 203.460938 191.003906 203.933594 189.128906 204.367188 C 185.386719 205.234375 181.609375 205.960938 177.8125 206.550781 C 173.96875 207.144531 170.105469 207.59375 166.226562 207.898438 C 162.292969 208.207031 158.332031 208.226562 154.40625 208.582031 C 153.90625 208.628906 153.902344 209.320312 154.40625 209.363281 Z M 154.40625 209.363281 " fill-opacity="1" fill-rule="nonzero"/><path fill="#f2f6ff" d="M 121.316406 130.851562 C 120.46875 139.644531 120.65625 148.4375 121.773438 157.203125 C 122.308594 161.40625 122.972656 165.585938 123.890625 169.726562 C 124.84375 174.035156 125.84375 178.472656 127.414062 182.597656 C 128.039062 184.25 130.691406 183.582031 130.109375 181.855469 C 128.710938 177.714844 127.148438 173.679688 126.019531 169.449219 C 124.925781 165.347656 124.011719 161.183594 123.382812 156.984375 C 122.097656 148.363281 121.792969 139.550781 122.25 130.851562 C 122.28125 130.246094 121.375 130.265625 121.316406 130.851562 Z M 121.316406 130.851562 " fill-opacity="1" fill-rule="nonzero"/><path fill="#f2f6ff" d="M 204.910156 121.464844 C 207.167969 129.894531 209.203125 138.457031 210.5 147.09375 C 211.15625 151.46875 211.601562 155.875 211.898438 160.292969 C 212.046875 162.496094 212.144531 164.707031 212.195312 166.917969 C 212.242188 168.871094 211.820312 171.335938 212.582031 173.160156 C 212.808594 173.707031 213.71875 174.050781 214.035156 173.351562 C 214.855469 171.515625 214.496094 169.1875 214.453125 167.21875 C 214.40625 165.007812 214.308594 162.800781 214.167969 160.59375 C 213.882812 156.179688 213.375 151.785156 212.703125 147.417969 C 211.316406 138.429688 209.15625 129.675781 205.777344 121.222656 C 205.566406 120.699219 204.753906 120.890625 204.910156 121.464844 Z M 204.910156 121.464844 " fill-opacity="1" fill-rule="nonzero"/><path fill="#f2f6ff" d="M 122.664062 129.328125 C 133.078125 127.984375 143.398438 125.976562 153.828125 124.683594 C 164.632812 123.34375 175.484375 122.339844 186.355469 121.726562 C 189.273438 121.5625 192.195312 121.425781 195.117188 121.324219 C 196.503906 121.273438 197.890625 121.230469 199.277344 121.199219 C 200.558594 121.164062 201.941406 121.363281 203.039062 120.605469 C 203.292969 120.429688 203.304688 120.078125 203.039062 119.90625 C 202.105469 119.300781 201.179688 119.414062 200.105469 119.441406 C 198.8125 119.472656 197.523438 119.511719 196.234375 119.554688 C 193.605469 119.648438 190.976562 119.765625 188.351562 119.90625 C 182.960938 120.195312 177.574219 120.585938 172.195312 121.0625 C 161.460938 122.015625 150.753906 123.320312 140.105469 124.984375 C 134.234375 125.902344 128.28125 126.863281 122.539062 128.414062 C 122.054688 128.546875 122.132812 129.398438 122.664062 129.328125 Z M 122.664062 129.328125 " fill-opacity="1" fill-rule="nonzero"/><path fill="#55acee" d="M 192.304688 140.101562 C 192.304688 140.558594 192.257812 141.007812 192.171875 141.457031 C 192.082031 141.902344 191.949219 142.335938 191.777344 142.757812 C 191.601562 143.175781 191.386719 143.578125 191.132812 143.957031 C 190.882812 144.335938 190.59375 144.683594 190.273438 145.007812 C 189.949219 145.328125 189.597656 145.617188 189.21875 145.871094 C 188.839844 146.121094 188.441406 146.335938 188.019531 146.511719 C 187.597656 146.683594 187.164062 146.816406 186.71875 146.90625 C 186.269531 146.992188 185.820312 147.039062 185.363281 147.039062 C 184.910156 147.039062 184.457031 146.992188 184.011719 146.90625 C 183.5625 146.816406 183.128906 146.683594 182.707031 146.511719 C 182.289062 146.335938 181.886719 146.121094 181.507812 145.871094 C 181.128906 145.617188 180.777344 145.328125 180.457031 145.007812 C 180.132812 144.683594 179.847656 144.335938 179.59375 143.957031 C 179.339844 143.578125 179.125 143.175781 178.953125 142.757812 C 178.777344 142.335938 178.644531 141.902344 178.558594 141.457031 C 178.46875 141.007812 178.425781 140.558594 178.425781 140.101562 C 178.425781 139.648438 178.46875 139.195312 178.558594 138.75 C 178.644531 138.304688 178.777344 137.871094 178.953125 137.449219 C 179.125 137.027344 179.339844 136.628906 179.59375 136.25 C 179.847656 135.871094 180.132812 135.519531 180.457031 135.199219 C 180.777344 134.878906 181.128906 134.589844 181.507812 134.335938 C 181.886719 134.082031 182.289062 133.871094 182.707031 133.695312 C 183.128906 133.523438 183.5625 133.390625 184.011719 133.300781 C 184.457031 133.210938 184.910156 133.167969 185.363281 133.167969 C 185.820312 133.167969 186.269531 133.210938 186.71875 133.300781 C 187.164062 133.390625 187.597656 133.523438 188.019531 133.695312 C 188.441406 133.871094 188.839844 134.082031 189.21875 134.335938 C 189.597656 134.589844 189.949219 134.878906 190.273438 135.199219 C 190.59375 135.519531 190.882812 135.871094 191.132812 136.25 C 191.386719 136.628906 191.601562 137.027344 191.777344 137.449219 C 191.949219 137.871094 192.082031 138.304688 192.171875 138.75 C 192.257812 139.195312 192.304688 139.648438 192.304688 140.101562 Z M 192.304688 140.101562 " fill-opacity="1" fill-rule="nonzero"/><path fill="#f2f6ff" d="M 192.183594 159.414062 C 192.183594 159.761719 192.152344 160.109375 192.082031 160.453125 C 192.015625 160.792969 191.914062 161.128906 191.78125 161.449219 C 191.644531 161.773438 191.480469 162.078125 191.289062 162.371094 C 191.09375 162.660156 190.871094 162.929688 190.625 163.175781 C 190.378906 163.421875 190.109375 163.644531 189.816406 163.839844 C 189.527344 164.03125 189.222656 164.195312 188.898438 164.328125 C 188.574219 164.464844 188.242188 164.5625 187.898438 164.632812 C 187.554688 164.699219 187.210938 164.734375 186.859375 164.734375 C 186.511719 164.734375 186.164062 164.699219 185.820312 164.632812 C 185.476562 164.5625 185.144531 164.464844 184.824219 164.328125 C 184.5 164.195312 184.191406 164.03125 183.902344 163.839844 C 183.609375 163.644531 183.34375 163.421875 183.09375 163.175781 C 182.847656 162.929688 182.625 162.660156 182.433594 162.371094 C 182.238281 162.078125 182.074219 161.773438 181.941406 161.449219 C 181.808594 161.128906 181.707031 160.792969 181.636719 160.453125 C 181.570312 160.109375 181.535156 159.761719 181.535156 159.414062 C 181.535156 159.066406 181.570312 158.71875 181.636719 158.375 C 181.707031 158.03125 181.808594 157.699219 181.941406 157.378906 C 182.074219 157.054688 182.238281 156.75 182.433594 156.457031 C 182.625 156.167969 182.847656 155.898438 183.09375 155.652344 C 183.34375 155.40625 183.609375 155.183594 183.902344 154.988281 C 184.191406 154.796875 184.5 154.632812 184.824219 154.496094 C 185.144531 154.363281 185.476562 154.261719 185.820312 154.195312 C 186.164062 154.128906 186.511719 154.09375 186.859375 154.09375 C 187.210938 154.09375 187.554688 154.128906 187.898438 154.195312 C 188.242188 154.261719 188.574219 154.363281 188.898438 154.496094 C 189.222656 154.632812 189.527344 154.796875 189.816406 154.988281 C 190.109375 155.183594 190.378906 155.40625 190.625 155.652344 C 190.871094 155.898438 191.09375 156.167969 191.289062 156.457031 C 191.480469 156.75 191.644531 157.054688 191.78125 157.378906 C 191.914062 157.699219 192.015625 158.03125 192.082031 158.375 C 192.152344 158.71875 192.183594 159.066406 192.183594 159.414062 Z M 192.183594 159.414062 " fill-opacity="1" fill-rule="nonzero"/><path fill="#f2f6ff" d="M 135.070312 146.542969 C 139.53125 145.578125 144.015625 144.726562 148.515625 143.988281 C 150.753906 143.621094 153 143.28125 155.246094 142.96875 C 155.503906 142.933594 155.761719 142.898438 156.019531 142.863281 C 156.527344 142.792969 155.75 142.898438 156.257812 142.832031 C 156.414062 142.8125 156.566406 142.792969 156.722656 142.769531 C 157.292969 142.695312 157.859375 142.625 158.429688 142.550781 C 159.566406 142.410156 160.707031 142.277344 161.847656 142.148438 C 164.386719 141.863281 166.929688 141.617188 169.476562 141.402344 C 170.226562 141.339844 170.953125 140.785156 170.917969 139.964844 C 170.882812 139.238281 170.28125 138.457031 169.476562 138.523438 C 160.253906 139.296875 151.070312 140.527344 141.972656 142.222656 C 139.410156 142.699219 136.855469 143.214844 134.304688 143.765625 C 133.566406 143.925781 133.070312 144.824219 133.300781 145.535156 C 133.550781 146.3125 134.28125 146.714844 135.070312 146.542969 Z M 135.070312 146.542969 " fill-opacity="1" fill-rule="nonzero"/><path fill="#f2f6ff" d="M 136.269531 158.019531 C 140.726562 157.058594 145.210938 156.203125 149.714844 155.464844 C 151.953125 155.097656 154.195312 154.757812 156.441406 154.449219 C 156.699219 154.414062 156.957031 154.378906 157.21875 154.34375 C 157.726562 154.273438 156.945312 154.378906 157.453125 154.3125 C 157.609375 154.289062 157.765625 154.269531 157.917969 154.25 C 158.488281 154.175781 159.058594 154.101562 159.625 154.03125 C 160.765625 153.890625 161.902344 153.753906 163.042969 153.625 C 165.582031 153.34375 168.128906 153.09375 170.671875 152.882812 C 171.421875 152.820312 172.152344 152.265625 172.113281 151.441406 C 172.082031 150.71875 171.476562 149.9375 170.671875 150.003906 C 161.453125 150.773438 152.265625 152.007812 143.167969 153.703125 C 140.605469 154.179688 138.050781 154.695312 135.5 155.246094 C 134.765625 155.402344 134.265625 156.304688 134.496094 157.015625 C 134.746094 157.792969 135.476562 158.191406 136.269531 158.019531 Z M 136.269531 158.019531 " fill-opacity="1" fill-rule="nonzero"/><path fill="#f2f6ff" d="M 137.941406 168.78125 C 142.402344 167.820312 146.886719 166.964844 151.390625 166.226562 C 153.628906 165.859375 155.871094 165.519531 158.117188 165.210938 C 158.375 165.175781 158.632812 165.140625 158.890625 165.105469 C 159.402344 165.035156 158.621094 165.140625 159.128906 165.074219 C 159.285156 165.050781 159.441406 165.03125 159.59375 165.011719 C 160.164062 164.9375 160.730469 164.863281 161.300781 164.792969 C 162.441406 164.652344 163.578125 164.515625 164.71875 164.386719 C 167.257812 164.105469 169.800781 163.855469 172.347656 163.644531 C 173.097656 163.582031 173.824219 163.027344 173.789062 162.203125 C 173.757812 161.476562 173.152344 160.699219 172.347656 160.765625 C 163.125 161.535156 153.941406 162.769531 144.84375 164.460938 C 142.28125 164.941406 139.726562 165.457031 137.175781 166.007812 C 136.4375 166.164062 135.941406 167.066406 136.171875 167.777344 C 136.421875 168.554688 137.152344 168.953125 137.941406 168.78125 Z M 137.941406 168.78125 " fill-opacity="1" fill-rule="nonzero"/><path fill="#f2f6ff" d="M 158.679688 185.738281 C 156.425781 182.433594 151.515625 181.917969 148.007812 183.339844 C 147.75 183.445312 147.558594 183.640625 147.554688 183.9375 C 147.542969 184.855469 147.542969 185.773438 147.539062 186.691406 C 147.539062 187.089844 147.945312 187.421875 148.335938 187.296875 C 149.921875 186.796875 151.542969 186.628906 153.191406 186.894531 C 154.746094 187.148438 155.996094 187.914062 157.445312 188.4375 C 157.703125 188.527344 157.996094 188.328125 158.066406 188.082031 C 158.277344 187.351562 158.488281 186.621094 158.699219 185.890625 C 158.761719 185.675781 158.457031 185.550781 158.34375 185.738281 C 157.941406 186.390625 157.542969 187.042969 157.144531 187.695312 L 157.9375 187.589844 C 155.558594 185.15625 151.015625 185.132812 148.003906 186.082031 L 148.800781 186.691406 C 148.800781 186.074219 148.804688 185.460938 148.800781 184.847656 C 148.800781 184.730469 148.710938 184.074219 148.796875 183.984375 C 149.058594 184.234375 149.34375 184.257812 149.648438 184.054688 C 149.945312 183.96875 150.246094 183.902344 150.550781 183.851562 C 153.457031 183.371094 155.996094 184.535156 158.414062 186.003906 C 158.574219 186.101562 158.792969 185.902344 158.679688 185.738281 Z M 158.679688 185.738281 " fill-opacity="1" fill-rule="nonzero"/><path fill="#f2f6ff" d="M 192.121094 180.390625 C 188.105469 180.261719 184.816406 183.988281 183.910156 187.660156 C 183.839844 187.953125 183.96875 188.191406 184.195312 188.359375 C 184.933594 188.910156 185.675781 189.449219 186.417969 189.992188 C 186.765625 190.242188 187.226562 189.964844 187.34375 189.613281 C 187.855469 188.074219 188.671875 186.683594 189.820312 185.53125 C 190.929688 184.414062 192.265625 183.871094 193.539062 183.015625 C 193.835938 182.816406 193.847656 182.488281 193.640625 182.222656 C 193.183594 181.628906 192.722656 181.039062 192.261719 180.445312 C 192.144531 180.296875 191.863281 180.460938 191.933594 180.636719 C 192.222656 181.328125 192.507812 182.019531 192.796875 182.714844 L 193.152344 182.089844 C 189.785156 182.582031 187.117188 186.296875 186.128906 189.277344 L 187.054688 188.902344 C 186.3125 188.363281 185.570312 187.820312 184.824219 187.289062 L 185.109375 187.988281 C 185.949219 184.210938 188.78125 182.175781 192.175781 180.773438 C 192.367188 180.691406 192.359375 180.398438 192.121094 180.390625 Z M 192.121094 180.390625 " fill-opacity="1" fill-rule="nonzero"/><path fill="#f2f6ff" d="M 141.609375 174.027344 C 144.066406 174.574219 146.246094 175.453125 147.847656 177.488281 C 147.9375 177.597656 148.773438 178.851562 148.746094 178.378906 C 148.753906 178.527344 148.410156 178.882812 148.324219 179.011719 L 147.359375 180.457031 L 148.308594 180.335938 C 147.113281 178.828125 145.628906 177.613281 143.878906 176.800781 C 142.875 176.332031 140.90625 175.269531 139.960938 176.183594 L 140.273438 176.421875 C 140.871094 175.5625 141.46875 174.699219 142.066406 173.839844 C 142.363281 173.414062 141.605469 172.964844 141.367188 173.429688 C 140.992188 174.160156 139.699219 175.761719 140.007812 176.550781 C 140.167969 176.957031 140.542969 176.9375 140.902344 177.039062 C 141.800781 177.292969 142.65625 177.507812 143.5 177.925781 C 145.070312 178.699219 146.378906 179.820312 147.457031 181.1875 C 147.714844 181.515625 148.210938 181.355469 148.40625 181.066406 C 148.878906 180.363281 149.355469 179.65625 149.828125 178.953125 C 149.953125 178.765625 149.925781 178.523438 149.828125 178.335938 C 148.289062 175.339844 145.125 173.246094 141.714844 173.230469 C 141.269531 173.230469 141.15625 173.925781 141.609375 174.027344 Z M 141.609375 174.027344 " fill-opacity="1" fill-rule="nonzero"/><path fill="#f2f6ff" d="M 190 175.511719 C 191.023438 173.28125 192.296875 171.355469 194.542969 170.191406 C 194.640625 170.140625 196.195312 169.472656 195.738281 169.40625 C 195.882812 169.425781 196.164062 169.84375 196.269531 169.949219 L 197.484375 171.195312 L 197.605469 170.246094 C 195.929688 171.078125 194.472656 172.222656 193.316406 173.699219 C 192.640625 174.566406 191.070312 176.417969 191.773438 177.546875 L 192.082031 177.304688 C 191.367188 176.542969 190.652344 175.785156 189.9375 175.023438 C 189.574219 174.636719 188.964844 175.269531 189.363281 175.59375 C 190 176.113281 191.300781 177.707031 192.128906 177.59375 C 192.5625 177.53125 192.621094 177.164062 192.796875 176.839844 C 193.183594 176.121094 193.515625 175.410156 194 174.742188 C 195.097656 173.242188 196.554688 172.105469 198.214844 171.289062 C 198.574219 171.113281 198.59375 170.601562 198.339844 170.339844 C 197.746094 169.730469 197.15625 169.117188 196.566406 168.507812 C 196.414062 168.351562 196.179688 168.292969 195.972656 168.351562 C 192.71875 169.230469 189.984375 171.867188 189.257812 175.199219 C 189.167969 175.621094 189.796875 175.949219 190 175.511719 Z M 190 175.511719 " fill-opacity="1" fill-rule="nonzero"/><path fill="#f2f6ff" d="M 281.25 95.429688 C 276.15625 92.632812 270.882812 90.253906 265.894531 87.234375 C 263.398438 85.722656 260.949219 84.132812 258.589844 82.414062 C 257.335938 81.503906 256.109375 80.554688 254.917969 79.5625 C 253.917969 78.726562 252.996094 77.753906 251.828125 77.148438 C 251.527344 76.996094 251.175781 77.3125 251.355469 77.621094 C 252.605469 79.773438 255.195312 81.359375 257.164062 82.820312 C 259.710938 84.710938 262.367188 86.449219 265.085938 88.082031 C 270.082031 91.074219 275.480469 94.128906 281.042969 95.921875 C 281.332031 96.015625 281.515625 95.578125 281.25 95.429688 Z M 281.25 95.429688 " fill-opacity="1" fill-rule="nonzero"/><path fill="#f2f6ff" d="M 69.53125 198.597656 C 69.960938 199.539062 70.871094 199.859375 71.742188 200.386719 C 72.859375 201.0625 74 201.699219 75.136719 202.347656 C 77.796875 203.863281 80.464844 205.371094 83.171875 206.804688 C 85.816406 208.203125 88.5 209.566406 91.253906 210.742188 C 93.472656 211.695312 96.074219 212.761719 98.519531 212.878906 C 98.910156 212.898438 99.316406 212.648438 99.507812 212.308594 L 99.726562 212.121094 C 99.84375 212.019531 99.882812 211.78125 99.789062 211.648438 L 99.625 211.425781 C 99.535156 211.039062 99.195312 210.734375 98.824219 210.625 C 96.363281 209.921875 93.957031 209.3125 91.546875 208.40625 C 88.734375 207.34375 86.019531 206.042969 83.335938 204.691406 C 80.75 203.390625 78.195312 202.027344 75.644531 200.660156 C 74.503906 200.050781 73.371094 199.441406 72.207031 198.878906 C 71.308594 198.445312 70.6875 197.992188 69.699219 198.179688 C 69.503906 198.214844 69.460938 198.445312 69.53125 198.597656 Z M 69.53125 198.597656 " fill-opacity="1" fill-rule="nonzero"/><path fill="#55acee" d="M 282.671875 87.917969 C 282.058594 87.515625 281.515625 87.027344 280.90625 86.628906 C 279.621094 85.785156 278.265625 85.09375 276.871094 84.453125 C 274.132812 83.191406 271.503906 81.742188 268.902344 80.21875 C 266.320312 78.710938 263.703125 77.195312 261.199219 75.566406 C 259.976562 74.773438 258.808594 73.910156 257.609375 73.085938 C 257.351562 72.90625 257.09375 72.738281 256.832031 72.566406 C 256.328125 73.011719 255.824219 73.453125 255.328125 73.898438 C 255.523438 74.148438 255.714844 74.394531 255.917969 74.632812 C 256.9375 75.851562 258.132812 76.953125 259.289062 78.042969 C 261.625 80.246094 264.011719 82.210938 266.714844 83.957031 C 269.347656 85.652344 272.160156 87.132812 275.007812 88.429688 C 276.511719 89.117188 278.078125 89.695312 279.71875 89.945312 C 280.929688 90.132812 282.699219 90.453125 283.828125 89.910156 C 284.082031 89.789062 284.117188 89.457031 284.007812 89.234375 C 283.714844 88.65625 283.203125 88.269531 282.671875 87.917969 Z M 282.671875 87.917969 " fill-opacity="1" fill-rule="nonzero"/><path fill="#f2f6ff" d="M 100.492188 50.78125 C 99.3125 55.429688 98.554688 60.15625 98.179688 64.933594 C 97.984375 67.402344 97.777344 69.878906 97.675781 72.351562 C 97.640625 73.179688 97.050781 76.902344 98.566406 76.96875 C 100 77.035156 99.4375 74.292969 99.382812 73.589844 C 99.203125 71.125 99.035156 68.640625 99.152344 66.167969 C 99.402344 61.058594 100.132812 55.980469 101.1875 50.972656 C 101.28125 50.523438 100.605469 50.332031 100.492188 50.78125 Z M 100.492188 50.78125 " fill-opacity="1" fill-rule="nonzero"/><path fill="#f2f6ff" d="M 221.351562 51.546875 C 222.03125 55.683594 222.609375 59.816406 222.660156 64.019531 C 222.683594 65.9375 222.617188 67.859375 222.460938 69.773438 C 222.308594 71.644531 221.546875 73.886719 222 75.710938 C 222.171875 76.398438 223.128906 76.484375 223.480469 75.902344 C 224.4375 74.328125 224.246094 71.878906 224.332031 70.074219 C 224.429688 67.957031 224.417969 65.832031 224.296875 63.714844 C 224.058594 59.527344 223.460938 55.320312 222.191406 51.316406 C 222.019531 50.773438 221.261719 51.003906 221.351562 51.546875 Z M 221.351562 51.546875 " fill-opacity="1" fill-rule="nonzero"/><path fill="#55acee" d="M 95.183594 216.527344 C 94.257812 215.5625 92.761719 215.132812 91.53125 214.683594 C 90.246094 214.214844 88.980469 213.734375 87.710938 213.230469 C 85.003906 212.15625 82.324219 211.003906 79.730469 209.6875 C 77.183594 208.394531 74.703125 206.992188 72.214844 205.59375 C 71.140625 204.988281 70.0625 204.382812 68.992188 203.773438 C 68.894531 204.652344 68.796875 205.589844 68.703125 206.542969 C 69.207031 206.980469 69.722656 207.40625 70.246094 207.816406 C 72.644531 209.695312 75.265625 211.292969 77.988281 212.664062 C 80.667969 214.015625 83.421875 215.210938 86.265625 216.171875 C 87.671875 216.648438 89.128906 217.035156 90.570312 217.394531 C 91.894531 217.71875 93.550781 218.132812 94.875 217.6875 C 95.371094 217.519531 95.558594 216.917969 95.183594 216.527344 Z M 95.183594 216.527344 " fill-opacity="1" fill-rule="nonzero"/><path fill="#55acee" d="M 188.386719 294.457031 C 188.269531 293.960938 188.160156 293.46875 188.046875 292.980469 C 181.734375 297.019531 174.96875 300.445312 167.882812 302.839844 C 159.269531 305.757812 150.472656 307.992188 141.460938 309.269531 C 139.644531 309.527344 137.828125 309.71875 136.011719 309.871094 C 136.429688 310.789062 136.855469 311.691406 137.285156 312.578125 C 138.175781 312.617188 139.066406 312.640625 139.957031 312.660156 C 144.707031 312.753906 149.492188 312.246094 154.140625 311.289062 C 163.382812 309.386719 172.109375 305.691406 180.019531 300.554688 C 182.957031 298.648438 185.734375 296.65625 188.382812 294.457031 Z M 188.386719 294.457031 " fill-opacity="1" fill-rule="nonzero"/><path fill="#55acee" d="M 257.753906 273.457031 C 258.765625 272.453125 259.734375 271.382812 260.644531 270.257812 C 260.261719 269.214844 259.902344 268.183594 259.558594 267.148438 C 255.582031 270.695312 251.402344 274.003906 246.835938 276.78125 C 243.457031 278.835938 239.984375 280.6875 236.300781 282.140625 C 232.613281 283.59375 228.769531 284.984375 224.882812 285.808594 C 222.640625 286.285156 220.355469 286.613281 218.074219 286.851562 C 216.984375 286.96875 215.898438 287.082031 214.804688 287.175781 C 214.4375 287.207031 214.074219 287.261719 213.710938 287.320312 C 214.074219 287.945312 214.449219 288.566406 214.835938 289.179688 C 215.609375 289.269531 216.402344 289.285156 217.167969 289.316406 C 219.28125 289.40625 221.398438 289.277344 223.5 289.046875 C 227.75 288.582031 231.949219 287.910156 236.015625 286.558594 C 244.097656 283.867188 251.683594 279.445312 257.753906 273.457031 Z M 257.753906 273.457031 " fill-opacity="1" fill-rule="nonzero"/><path fill="#1b1b1b" d="M 135.984375 26.449219 C 133.207031 28.402344 130.550781 30.226562 128.140625 32.644531 C 125.757812 35.03125 123.546875 37.78125 121.65625 40.574219 C 119.765625 43.367188 118.28125 46.496094 117.160156 49.660156 C 116.566406 51.332031 116.03125 53.046875 115.777344 54.808594 C 115.546875 56.394531 115.226562 58.390625 115.839844 59.914062 C 116.175781 60.75 117.382812 61.386719 118.097656 60.511719 C 119.0625 59.328125 119.421875 57.835938 119.9375 56.421875 C 120.480469 54.925781 120.902344 53.382812 121.394531 51.867188 C 122.402344 48.78125 123.652344 45.78125 125.09375 42.871094 C 126.523438 39.980469 128.109375 37.328125 130.027344 34.730469 C 131.957031 32.117188 134.144531 29.378906 136.605469 27.25 C 137.039062 26.875 136.460938 26.117188 135.988281 26.449219 Z M 135.984375 26.449219 " fill-opacity="1" fill-rule="nonzero"/><path fill="#1b1b1b" d="M 116.066406 64.578125 C 115.042969 66.664062 114.746094 70.234375 116.800781 71.769531 C 117.554688 72.332031 118.644531 71.71875 118.875 70.929688 C 119.1875 69.839844 118.71875 68.925781 118.519531 67.859375 C 118.328125 66.855469 118.210938 65.839844 118.015625 64.835938 C 117.84375 63.953125 116.460938 63.777344 116.066406 64.578125 Z M 116.066406 64.578125 " fill-opacity="1" fill-rule="nonzero"/><path fill="#1b1b1b" d="M 173.480469 82.246094 C 179.28125 82.289062 185.082031 82.335938 190.882812 82.390625 C 193.730469 82.417969 196.578125 82.453125 199.425781 82.496094 C 200.902344 82.519531 202.375 82.542969 203.851562 82.570312 C 205.003906 82.589844 206.175781 82.828125 207.207031 82.261719 C 207.457031 82.125 207.441406 81.753906 207.207031 81.613281 C 206.195312 81.011719 205 81.21875 203.851562 81.203125 C 202.375 81.183594 200.902344 81.167969 199.425781 81.15625 C 196.578125 81.136719 193.730469 81.125 190.882812 81.121094 C 185.078125 81.117188 179.28125 81.183594 173.480469 81.316406 C 172.882812 81.328125 172.878906 82.242188 173.480469 82.246094 Z M 173.480469 82.246094 " fill-opacity="1" fill-rule="nonzero"/><path fill="#1b1b1b" d="M 117.796875 83.644531 C 119.644531 83.578125 121.492188 83.523438 123.335938 83.445312 C 124.945312 83.382812 126.824219 83.5 128.34375 82.941406 C 128.613281 82.84375 128.667969 82.414062 128.34375 82.335938 C 126.777344 81.964844 124.933594 82.300781 123.335938 82.425781 C 121.488281 82.574219 119.644531 82.742188 117.796875 82.898438 C 117.324219 82.9375 117.308594 83.664062 117.796875 83.644531 Z M 117.796875 83.644531 " fill-opacity="1" fill-rule="nonzero"/></svg>